<svg version="1.2" xmlns="http://www.w3.org/2000/svg" viewBox="0 0 267 205" width="267" height="205">
	<title>LogoWIJJ</title>
	<defs>
		<radialGradient id="g1" cx="0" cy="0" r="1" gradientUnits="userSpaceOnUse" gradientTransform="matrix(75.3,.013,-0.013,75.3,191.22,184.476)">
			<stop offset=".03" stop-color="#000000" stop-opacity="1"/>
			<stop offset=".14" stop-color="#2b2b2b" stop-opacity="1"/>
			<stop offset=".39" stop-color="#999999" stop-opacity="1"/>
			<stop offset=".45" stop-color="#b2b2b2" stop-opacity="1"/>
			<stop offset=".48" stop-color="#b2b2b2" stop-opacity=".9"/>
			<stop offset=".57" stop-color="#b2b2b2" stop-opacity=".63"/>
			<stop offset=".66" stop-color="#b2b2b2" stop-opacity=".4"/>
			<stop offset=".75" stop-color="#b2b2b2" stop-opacity=".23"/>
			<stop offset=".84" stop-color="#b2b2b2" stop-opacity=".1"/>
			<stop offset=".93" stop-color="#b2b2b2" stop-opacity=".03"/>
			<stop offset="1" stop-color="#b2b2b2" stop-opacity="0"/>
		</radialGradient>
		<radialGradient id="g2" cx="0" cy="0" r="1" gradientUnits="userSpaceOnUse" gradientTransform="matrix(95.306,-0.03,.03,95.306,180.533,57.243)">
			<stop offset="0" stop-color="#ffffff"/>
			<stop offset=".11" stop-color="#fdfdfd"/>
			<stop offset=".46" stop-color="#f1f1f1"/>
			<stop offset=".6" stop-color="#eeeeee"/>
			<stop offset=".67" stop-color="#e6e6e6"/>
			<stop offset=".73" stop-color="#d8d8d8"/>
			<stop offset=".78" stop-color="#c5c5c5"/>
			<stop offset=".83" stop-color="#ababab"/>
			<stop offset=".87" stop-color="#8c8c8c"/>
			<stop offset=".91" stop-color="#676767"/>
			<stop offset=".94" stop-color="#3d3d3d"/>
			<stop offset=".95" stop-color="#373737"/>
		</radialGradient>
		<radialGradient id="g3" cx="0" cy="0" r="1" gradientUnits="userSpaceOnUse" gradientTransform="matrix(-84.196,.027,-0.027,-84.196,192.75,50.109)">
			<stop offset="0" stop-color="#ffffff"/>
			<stop offset=".11" stop-color="#fdfdfd"/>
			<stop offset=".29" stop-color="#000000"/>
			<stop offset=".84" stop-color="#000000"/>
			<stop offset="1" stop-color="#676767"/>
		</radialGradient>
		<radialGradient id="g4" cx="0" cy="0" r="1" gradientUnits="userSpaceOnUse" gradientTransform="matrix(50.994,-23.129,23.129,50.994,222.34,-59.636)">
			<stop offset="0" stop-color="#ffffff"/>
			<stop offset=".09" stop-color="#fcfcfc"/>
			<stop offset=".14" stop-color="#f4f4f4"/>
			<stop offset=".18" stop-color="#e7e7e7"/>
			<stop offset=".43" stop-color="#c3c3c3"/>
			<stop offset=".68" stop-color="#999999"/>
			<stop offset="1" stop-color="#666666"/>
		</radialGradient>
		<linearGradient id="g5" x2="1" gradientUnits="userSpaceOnUse" gradientTransform="matrix(0,-181.33,131.963,0,192.37,182.05)">
			<stop offset=".18" stop-color="#009bb8"/>
			<stop offset=".34" stop-color="#22a8c5"/>
			<stop offset=".65" stop-color="#5dbfdd"/>
			<stop offset=".88" stop-color="#82ceec"/>
			<stop offset="1" stop-color="#91d4f2"/>
		</linearGradient>
	</defs>
	<style>
		.s0 { mix-blend-mode: multiply;fill: url(#g1) } 
		.s1 { fill: #007f92 } 
		.s2 { fill: url(#g2) } 
		.s3 { opacity: .75;fill: url(#g3) } 
		.s4 { fill: url(#g4) } 
		.s5 { mix-blend-mode: multiply;fill: url(#g5) } 
		.s6 { opacity: .7;fill: #ffffff } 
		.s7 { fill: #ffffff } 
		.s8 { opacity: .8;fill: #ffffff } 
	</style>
	<g>
		<g id="Laag_1">
			<g>
				<path class="s0" d="m266.5 182.5c0 11.9-33.7 21.6-75.3 21.6-41.6 0-75.3-9.7-75.3-21.6 0-11.9 33.7-21.6 75.3-21.6 41.6 0 75.3 9.7 75.3 21.6z"/>
				<g>
					<path fill-rule="evenodd" class="s1" d="m152.4 31.4c-5.9 0-10.6-4.7-10.6-10.6 0-5.9 4.7-10.6 10.6-10.6 5.9 0 10.6 4.7 10.6 10.6 0 5.9-4.7 10.6-10.6 10.6z"/>
					<path fill-rule="evenodd" class="s1" d="m232.5 31.4c-5.9 0-10.7-4.7-10.7-10.6 0-5.9 4.8-10.6 10.7-10.6 5.8 0 10.6 4.7 10.6 10.6 0 5.9-4.8 10.6-10.6 10.6z"/>
				</g>
				<path class="s2" d="m258.4 101.5c0-42.9-29.5-100.8-66-100.8-36.4 0-66 57.9-66 100.8 0 42.9 29.5 80.6 66 80.6 36.4 0 66-37.7 66-80.6z"/>
				<path class="s3" d="m133.5 89.8c0-38 26.4-89.1 58.9-89.1 32.5 0 58.9 51.2 58.9 89.1 0 37.9-26.4 71.1-58.9 71.1-32.6 0-58.9-33.3-58.9-71.2z"/>
				<path class="s4" d="m191.8 1.8c-26.4-0.1-47.9 42-47.9 73.2 0 31.1 21.4 58.5 47.9 58.5 26.5 0 47.9-27.4 48-58.5 0-31.2-21.5-73.2-47.9-73.2z"/>
				<path class="s5" d="m258.4 101.5c0-42.9-29.6-100.8-66-100.8-36.4 0-66 57.9-66 100.8 0 42.9 29.5 80.6 65.9 80.6 36.5 0 66-37.7 66.1-80.6z"/>
				<g>
					<path fill-rule="evenodd" class="s1" d="m114.9 10.6c5.7 1.6 9 7.5 7.3 13.1l-25.2 88.8c-1.6 5.6-7.5 8.9-13.1 7.3-5.7-1.6-9-7.5-7.4-13.1l25.3-88.8c1.6-5.6 7.5-8.9 13.1-7.3z"/>
					<path fill-rule="evenodd" class="s1" d="m89.7 119.8c-5.7 1.6-11.5-1.7-13.2-7.3l-25.2-88.7c-1.6-5.7 1.6-11.6 7.3-13.2 5.6-1.6 11.5 1.7 13.1 7.3l25.3 88.8c1.6 5.6-1.7 11.5-7.3 13.1z"/>
					<path fill-rule="evenodd" class="s1" d="m64.4 10.6c5.7 1.6 8.9 7.5 7.3 13.1l-25.2 88.8c-1.6 5.6-7.5 8.9-13.2 7.3-5.6-1.6-8.9-7.5-7.3-13.1l25.3-88.8c1.6-5.6 7.5-8.9 13.1-7.3z"/>
					<path fill-rule="evenodd" class="s1" d="m39.2 119.8c-5.7 1.6-11.6-1.7-13.2-7.3l-25.2-88.7c-1.6-5.7 1.6-11.6 7.3-13.2 5.6-1.6 11.5 1.7 13.1 7.3l25.3 88.8c1.6 5.6-1.7 11.5-7.3 13.1z"/>
				</g>
				<path fill-rule="evenodd" class="s6" d="m152.4 40.7c5.9 0 10.6 4.7 10.6 10.6v58.3c0 5.9-4.7 10.6-10.6 10.6-5.9 0-10.6-4.7-10.6-10.6v-58.3c0-5.9 4.7-10.6 10.6-10.6z"/>
				<g style="opacity: .7">
					<path fill-rule="evenodd" class="s7" d="m192.4 40.8c5.9 0 10.7 4.7 10.7 10.6v89.3c0 5.9-4.8 10.6-10.7 10.6-5.8 0-10.6-4.7-10.6-10.6v-89.3c0-5.9 4.8-10.6 10.6-10.6z"/>
					<path fill-rule="evenodd" class="s7" d="m192.4 31.4c-5.8 0-10.6-4.7-10.6-10.6 0-5.9 4.8-10.6 10.6-10.6 5.9 0 10.7 4.7 10.7 10.6 0 5.9-4.8 10.6-10.7 10.6z"/>
				</g>
				<path fill-rule="evenodd" class="s6" d="m232.5 40.8c5.8 0 10.6 4.7 10.6 10.6v89.3c0 5.9-4.8 10.6-10.6 10.6-5.9 0-10.7-4.7-10.7-10.6v-89.3c0-5.9 4.8-10.6 10.7-10.6z"/>
				<path class="s8" d="m163.1 20.8c0-2.1-0.7-4.1-1.7-5.7-4.7 4.4-9 9.7-12.9 15.6q1.8 0.7 3.9 0.7c5.9 0 10.7-4.7 10.7-10.6z"/>
				<path class="s8" d="m232.5 31.4c1.3 0 2.6-0.2 3.8-0.7-3.8-5.9-8.1-11.2-12.8-15.6-1 1.7-1.7 3.6-1.7 5.7 0 5.9 4.8 10.6 10.7 10.6z"/>
			</g>
		</g>
	</g>
</svg>